<svg width="180" height="71" viewBox="0 0 180 71" fill="none" xmlns="http://www.w3.org/2000/svg">
<path d="M18.3242 40.0633C17.9605 40.9171 17.5968 41.7643 17.2265 42.618C16.7305 43.7653 16.2412 44.9126 15.732 46.0532C15.322 46.9671 14.9186 47.8942 14.4491 48.7747C13.887 49.8219 12.9612 50.2888 11.7907 50.2822C7.97511 50.2822 4.1661 50.2822 0.350482 50.2822C0.244676 50.2822 0.132257 50.2822 0 50.2822C0 39.5898 0 28.9107 0 18.1982C0.13887 18.1982 0.264514 18.1982 0.396772 18.1982C3.28659 18.1982 6.1698 18.2183 9.05962 18.1849C10.0053 18.1716 10.9311 17.9848 11.6981 17.3444C12.2338 16.9042 12.5512 16.3039 12.8223 15.6836C13.8738 13.2956 14.912 10.901 15.9436 8.49969C16.9289 6.21179 17.8944 3.92389 18.8731 1.63599C19.1046 1.0957 19.3492 0.568753 19.5939 0.0217918C19.8915 0.0217918 20.1957 0.0217918 20.5462 0.0217918C20.5462 5.10453 20.5462 10.1739 20.5462 15.2366C20.5726 15.2433 20.5924 15.2433 20.6189 15.25C20.8702 14.683 21.1215 14.1094 21.3794 13.5424C22.0803 11.9549 22.7879 10.3674 23.4889 8.77984C24.3486 6.83879 25.2016 4.89775 26.0613 2.9567C26.4647 2.04955 26.8813 1.14239 27.278 0.23524C27.3574 0.0484727 27.4566 -0.0115596 27.6484 0.00178094C27.8666 0.0151214 28.0848 0.00845122 28.3493 0.00845122C28.3493 9.73369 28.3493 19.4389 28.3493 29.1441C28.3758 29.1508 28.4022 29.1508 28.4287 29.1575C28.6205 28.6839 28.8188 28.2103 29.0106 27.7367C29.705 25.9958 30.4059 24.2482 31.0871 22.5006C31.6029 21.1865 32.3369 20.0392 33.4346 19.1454C34.2083 18.5184 35.1077 18.1982 36.1062 18.1849C37.237 18.1716 38.3678 18.1249 39.4986 18.1249C41.6676 18.1315 43.8366 18.1649 45.9991 18.1849C46.052 18.1849 46.1049 18.1916 46.1842 18.1982C46.1842 28.8773 46.1842 39.5564 46.1842 50.2688C46.0586 50.2688 45.9395 50.2688 45.8205 50.2688C42.9571 50.2688 40.0872 50.2622 37.2238 50.2755C36.3244 50.2822 35.4317 50.4289 34.777 51.1293C34.4265 51.5028 34.0761 51.9164 33.8843 52.3766C33.0312 54.3777 32.2443 56.4055 31.4177 58.4199C30.6771 60.2275 29.9166 62.0285 29.1693 63.8361C28.4022 65.7038 27.655 67.5848 26.8945 69.4525C26.7027 69.9194 26.5043 70.373 26.306 70.8332C26.2795 70.8266 26.2464 70.8199 26.22 70.8132C26.22 64.9234 26.22 59.0402 26.22 53.1504C26.1869 53.1437 26.1539 53.137 26.1208 53.1237C23.5815 59.0802 21.0421 65.0435 18.5028 71C18.4697 70.9933 18.4367 70.9867 18.4036 70.98C18.4036 60.6678 18.4036 50.3555 18.4036 40.0433C18.3837 40.07 18.3507 40.0633 18.3242 40.0633ZM2.11612 48.5412C2.17563 48.5546 2.20208 48.5679 2.23515 48.5679C5.22416 48.5679 8.20656 48.5813 11.1956 48.5613C12.0156 48.5546 12.7165 48.1744 13.1728 47.4807C13.4968 46.9871 13.768 46.4468 13.9994 45.8932C14.7004 44.2189 15.3683 42.538 16.0494 40.8571C16.6776 39.3229 17.286 37.7821 17.9407 36.2613C18.2713 35.4809 18.397 34.6938 18.3904 33.8467C18.3705 25.2087 18.3771 16.5707 18.3771 7.93272C18.3771 7.75262 18.3771 7.57252 18.3771 7.39243C18.2978 7.42578 18.2713 7.47247 18.2515 7.51916C17.5902 9.20674 16.9289 10.8943 16.2742 12.5752C15.646 14.1827 14.998 15.7769 14.3962 17.3911C14.0193 18.4117 13.3712 19.1988 12.4388 19.7057C11.8238 20.0392 11.103 20.0259 10.4153 20.0326C7.78334 20.0526 5.1448 20.0392 2.51289 20.0392C2.38724 20.0392 2.25499 20.0392 2.11612 20.0392C2.11612 29.5644 2.11612 39.0428 2.11612 48.5412ZM44.3062 20.0126C44.2334 19.9992 44.1871 19.9859 44.1474 19.9859C41.5552 19.9859 38.9696 19.9592 36.3773 19.9992C35.5507 20.0126 34.7836 20.3461 34.1554 20.9464C33.514 21.5601 33.1172 22.3205 32.7866 23.1209C32.1385 24.7017 31.5367 26.3026 30.9019 27.8901C30.1943 29.6511 29.4735 31.412 28.7659 33.173C28.594 33.6065 28.3956 34.0268 28.3956 34.5337C28.4088 42.7048 28.4088 50.8692 28.4022 59.0402C28.4022 59.4271 28.3559 59.8073 28.3361 60.1942C28.3295 60.3943 28.3361 60.6011 28.3361 60.8078C28.4287 60.7878 28.4551 60.7545 28.4684 60.7211C28.9511 59.6072 29.4272 58.4933 29.9166 57.3793C30.8424 55.2448 31.7748 53.1037 32.7072 50.9692C32.8725 50.5957 33.0246 50.2221 33.3553 49.9153C34.4067 48.9281 35.6433 48.4745 37.0519 48.4679C39.3531 48.4612 41.6544 48.4679 43.9623 48.4679C44.0681 48.4679 44.1739 48.4679 44.3062 48.4679C44.3062 38.9627 44.3062 29.5043 44.3062 20.0126ZM20.5924 61.4348C20.6255 61.3948 20.6586 61.3748 20.6652 61.3481C21.4653 59.5071 22.2721 57.6595 23.0657 55.8118C23.9386 53.7974 24.8048 51.7763 25.6711 49.7552C25.81 49.4351 25.9885 49.1082 26.0216 48.768C26.0877 48.121 26.0745 47.4607 26.0877 46.807C26.1142 45.3128 26.134 43.812 26.1472 42.3179C26.1671 40.8104 26.1869 39.2963 26.1869 37.7888C26.1935 27.61 26.1869 17.4245 26.1869 7.24568C26.1869 7.1523 26.1803 7.06558 26.1671 6.87882C26.101 7.01222 26.0745 7.05891 26.0547 7.1056C25.6513 8.11281 25.2545 9.11335 24.8511 10.1206C23.9584 12.3484 23.0657 14.5696 22.1795 16.7908C21.6902 18.0115 21.2008 19.2321 20.7379 20.4595C20.6189 20.773 20.5462 21.1198 20.5528 21.4467C20.5528 24.5683 20.5924 27.69 20.5924 30.8117C20.5991 39.99 20.5924 49.1749 20.5924 58.3532C20.5924 58.4532 20.5858 58.5533 20.5858 58.6534C20.5924 59.5738 20.5924 60.4943 20.5924 61.4348Z" fill="#EAECF9"/>
<path d="M69.8119 17.9023C70.8247 17.1459 71.6349 16.4362 72.5285 15.8893C73.9821 15.005 75.5906 14.5512 77.3182 14.5745C77.8544 14.5861 78.3905 14.5978 78.9267 14.5745C79.5105 14.5512 79.7488 14.7839 79.7369 15.3541C79.7131 16.4944 79.7369 17.6463 79.725 18.7866C79.7012 23.5106 79.6893 28.2463 79.6535 32.9704C79.6535 33.2613 79.5224 33.7849 79.3676 33.8198C78.8433 33.9245 78.2714 33.8663 77.7233 33.8314C77.6637 33.8314 77.5803 33.5638 77.5803 33.4242C77.5923 31.1785 77.6161 28.9328 77.628 26.6871C77.6399 24.0691 77.6518 21.4511 77.6757 18.8331C77.6757 18.3444 77.6518 17.8674 77.6876 17.3787C77.7233 16.8551 77.5327 16.6689 76.9727 16.6689C74.2561 16.6456 71.6825 18.3328 70.5506 20.8926C70.0383 22.0445 69.7881 23.243 69.8 24.4997C69.8238 27.3736 69.8119 30.236 69.8119 33.11C69.8119 33.7849 69.7285 33.8779 69.0255 33.8896C67.6553 33.9012 67.7745 33.9478 67.7864 32.7144C67.8102 29.3982 67.8221 26.0937 67.846 22.7776C67.8579 21.0439 67.9055 19.3102 67.9174 17.5765C67.9294 16.7154 67.8698 16.6456 66.9881 16.6107C65.6894 16.5642 64.5336 17.0296 63.4971 17.7277C61.1618 19.2985 60.1252 21.5442 60.1252 24.2902C60.1252 27.2224 60.1252 30.1429 60.1013 33.0751C60.1013 33.8779 60.0418 33.8896 59.2435 33.9012C58.0282 33.9012 58.0163 33.9012 58.0282 32.7377C58.0639 29.7357 58.0401 26.7337 58.1592 23.7317C58.3022 20.1014 59.9822 17.2972 63.2826 15.5402C64.5932 14.8537 66.023 14.4465 67.56 14.5628C68.1319 14.6094 68.7157 14.6094 69.2876 14.5978C69.657 14.5978 69.8238 14.7141 69.8119 15.1097C69.8 16.0057 69.8119 16.9016 69.8119 17.9023Z" fill="#EAECF9"/>
<path d="M96.787 53.6118C95.6194 54.3914 94.6066 55.2524 93.427 55.8226C91.1275 56.9396 88.7088 57.1025 86.2305 56.2415C84.4075 55.6131 82.9182 54.5776 81.7863 53.0766C79.9395 50.6447 79.2246 47.9337 79.7846 44.9201C80.3088 42.1275 81.7148 39.9051 84.1216 38.3343C86.7071 36.6588 89.4832 36.2399 92.45 37.2988C93.856 37.7991 95.107 38.5321 96.1079 39.591C98.0023 41.5923 99.0985 43.9427 99.0746 46.7119C99.0508 49.7255 99.0032 52.7508 98.9674 55.7644C98.9555 56.4044 98.6934 56.6254 98.0381 56.5789C97.8236 56.5673 97.5734 56.5672 97.3947 56.4742C97.1921 56.3694 96.93 56.1716 96.8942 55.9738C96.8108 55.5201 96.8585 55.0546 96.8466 54.5892C96.8228 54.2518 96.7989 53.9143 96.787 53.6118ZM89.4713 54.5543C89.793 54.531 90.1147 54.5543 90.4126 54.4845C94.3564 53.6584 96.5844 50.9938 96.8227 47.2123C96.9896 44.4546 95.9291 42.081 93.5104 40.3938C90.5437 38.3343 86.5045 38.7416 84.0382 41.2898C82.4654 42.9071 81.7982 44.8619 81.8339 47.1075C81.9173 51.1684 85.325 54.531 89.4713 54.5543Z" fill="#EAECF9"/>
<path d="M124.811 45.944C124.811 48.562 124.823 51.1684 124.799 53.7864C124.799 54.2751 124.894 54.5543 125.49 54.5078C126.002 54.4729 126.515 54.5427 127.039 54.531C127.539 54.5194 127.718 54.7754 127.706 55.2059C127.706 55.4735 127.694 55.7528 127.694 56.0204C127.694 56.4276 127.468 56.6138 127.063 56.6254C126.05 56.6371 125.049 56.672 124.036 56.672C122.654 56.6836 121.26 56.6836 119.878 56.672C117.209 56.6603 114.54 56.6254 111.883 56.6254C111.407 56.6254 110.942 56.7185 110.465 56.7767C110.072 56.8232 109.858 56.7302 109.834 56.2647C109.762 54.4845 109.893 54.3332 111.692 54.3565C111.835 54.3565 111.967 54.3449 112.109 54.3565C112.562 54.3914 112.753 54.1936 112.741 53.7398C112.717 52.4832 112.693 51.2265 112.717 49.9699C112.765 48.2129 112.634 46.421 112.991 44.7222C113.587 41.8832 115.326 39.6957 117.972 38.3343C119.675 37.45 121.57 37.194 123.5 37.2173C124.906 37.2406 124.906 37.2406 124.894 38.6136C124.894 41.057 124.894 43.5005 124.894 45.9324C124.87 45.944 124.846 45.944 124.811 45.944ZM122.714 45.4088C122.702 45.4088 122.69 45.4088 122.666 45.4088C122.666 43.7216 122.654 42.0344 122.666 40.3589C122.666 39.8237 122.475 39.5444 121.903 39.6142C121.749 39.6259 121.582 39.6026 121.427 39.6259C118.031 40.1378 115.827 42.3602 115.124 45.4437C114.898 46.4443 114.909 47.5148 114.886 48.562C114.85 50.3073 114.874 52.0527 114.862 53.7864C114.862 54.2052 115.005 54.3798 115.446 54.3798C117.686 54.3798 119.926 54.403 122.166 54.4263C122.583 54.4263 122.726 54.2867 122.714 53.8794C122.702 51.052 122.714 48.2362 122.714 45.4088Z" fill="#EAECF9"/>
<path d="M166.584 30.4687C165.786 31.1668 165.107 31.8067 164.356 32.3769C163.057 33.3426 161.604 33.8895 159.947 34.064C154.955 34.5993 150.606 30.8526 149.713 26.4078C148.938 22.5565 149.868 19.2287 152.787 16.5758C155.158 14.4232 158.029 13.7134 161.234 14.5279C164.535 15.3657 166.62 17.4601 167.859 20.4853C168.538 22.1492 168.586 23.8597 168.538 25.6166C168.478 27.6878 168.562 29.7589 168.586 31.8184C168.586 32.3187 168.586 32.819 168.574 33.331C168.562 33.7033 168.383 33.8779 167.99 33.9011C166.656 33.9826 166.584 33.9244 166.596 32.5863C166.584 31.9115 166.584 31.2366 166.584 30.4687ZM158.434 32.0511C161.425 32.0045 163.439 31.0853 164.904 29.212C167.382 26.0588 167.192 21.5325 164.38 18.612C161.699 15.8195 157.564 15.5286 154.49 17.7975C151.536 19.985 150.225 24.7323 152.668 28.4673C154.145 30.7246 156.182 32.0627 158.434 32.0511Z" fill="#EAECF9"/>
<path d="M147.83 23.2779C147.83 25.9075 147.842 28.5488 147.818 31.1784C147.818 31.6555 147.949 31.8417 148.462 31.8068C149.01 31.7719 149.57 31.8068 150.13 31.7951C150.57 31.7835 150.809 31.9813 150.809 32.4118C150.844 33.9361 150.821 33.8895 149.45 33.8895C146.972 33.8895 144.494 33.9361 142.016 33.9361C139.347 33.9361 136.69 33.9128 134.021 33.8779C133.151 33.8663 133.103 33.7848 133.091 32.9238C133.091 32.8074 133.103 32.6911 133.091 32.5747C133.008 32.086 133.211 31.8533 133.735 31.8649C134.295 31.8766 134.843 31.83 135.403 31.8533C135.844 31.8649 135.975 31.702 135.975 31.2715C135.951 28.863 135.951 26.466 135.963 24.0575C135.987 20.4737 137.548 17.6928 140.645 15.7613C141.861 15.005 143.219 14.5861 144.696 14.5861C145.531 14.5861 146.365 14.5861 147.199 14.5628C147.699 14.5512 147.854 14.7606 147.842 15.2261C147.818 17.9372 147.83 20.6017 147.83 23.2779ZM137.774 27.4085C137.81 27.4085 137.834 27.4085 137.869 27.4085C137.869 28.6535 137.893 29.8869 137.857 31.1319C137.845 31.6671 137.977 31.9115 138.572 31.8649C139.204 31.8184 139.835 31.8417 140.479 31.8417C142.039 31.8417 143.612 31.8533 145.173 31.8417C145.531 31.8417 145.828 31.8184 145.816 31.3181C145.793 27.967 145.816 24.616 145.805 21.2649C145.805 19.9734 145.757 18.6702 145.745 17.3787C145.745 16.9132 145.542 16.6805 145.078 16.7154C144.482 16.762 143.862 16.7387 143.314 16.9016C140.371 17.8324 138.596 19.8687 138.024 22.7776C137.726 24.2785 137.845 25.861 137.774 27.4085Z" fill="#EAECF9"/>
<path d="M124.739 34.2619C120.724 34.1921 117.257 31.5508 115.875 27.6761C114.397 23.5339 115.648 19.0425 119.068 16.2035C121.999 13.76 126.717 13.632 129.863 15.7729C133.604 18.3211 135.224 23.2197 133.771 27.4667C132.722 30.5385 130.673 32.7493 127.48 33.7848C126.598 34.0641 125.657 34.1106 124.739 34.2619ZM124.811 16.3431C123.476 16.2849 121.701 16.8318 120.629 17.6114C116.101 20.9042 116.22 27.4667 120.521 30.6199C123.298 32.6562 127.36 32.4118 129.779 30.0731C132.198 27.7343 132.889 24.8487 131.924 21.6838C130.959 18.4957 128.266 16.4478 124.811 16.3431Z" fill="#EAECF9"/>
<path d="M81.2025 24.4996C81.2859 20.9857 82.4535 18.2862 84.9795 16.2616C88.9114 13.0851 94.7258 13.76 97.8713 17.623C99.7539 19.9268 100.516 22.5914 100.088 25.5119C99.599 28.828 97.9548 31.446 94.8807 33.0634C92.3786 34.3782 89.7454 34.5178 87.1599 33.3892C83.1088 31.6206 81.4527 28.3161 81.2025 24.4996ZM98.2288 24.2785C98.1811 22.1143 97.5616 20.369 96.2867 18.8796C93.3437 15.4355 88.2084 15.5751 85.3608 18.6586C82.4893 21.7652 82.5608 26.8383 85.5156 29.8054C87.6722 31.9696 90.9607 32.6329 93.7011 31.3064C96.7394 29.817 98.0501 27.2805 98.2288 24.2785Z" fill="#EAECF9"/>
<path d="M68.406 46.7701C68.406 43.8496 68.406 40.9174 68.406 37.9969C68.406 37.2057 68.5251 37.0777 69.3234 37.0544C70.5149 37.0311 71.7064 36.9846 72.8978 37.0428C77.1157 37.2406 79.4629 41.9064 77.4255 45.304C77.0919 45.8625 77.0561 46.2698 77.3897 46.8748C79.4033 50.5517 77.3182 55.4037 73.3506 56.2066C71.9089 56.4975 70.36 56.3462 68.8587 56.3695C68.4298 56.3811 68.3821 56.0437 68.3821 55.7062C68.3821 54.1587 68.394 52.6112 68.394 51.052C68.394 49.6208 68.394 48.1897 68.394 46.7585C68.394 46.7701 68.406 46.7701 68.406 46.7701ZM70.646 46.5956C70.6102 46.5956 70.5864 46.5956 70.5506 46.5956C70.5506 48.69 70.5387 50.7844 70.5506 52.8672C70.5625 54.1704 70.5864 54.1703 71.9208 54.1238C74.6017 54.0307 76.234 51.7734 75.9719 49.4463C75.8408 48.2595 75.2332 47.3054 74.28 46.549C73.5174 45.944 73.5412 45.9673 74.3515 45.3855C74.7685 45.083 75.1855 44.7106 75.4476 44.2685C76.4604 42.5464 75.8646 40.4055 74.1012 39.684C73.4221 39.4048 72.6 39.4513 71.8374 39.4281C70.6221 39.3932 70.6221 39.4164 70.634 40.6033C70.634 40.6614 70.646 40.7196 70.646 40.7778C70.646 42.7209 70.646 44.6641 70.646 46.5956Z" fill="#EAECF9"/>
<path d="M151.988 50.7495C150.988 51.5756 150.094 52.3086 149.2 53.0417C147.83 54.1587 146.46 55.2757 145.09 56.3811C144.661 56.7301 144.482 56.6603 144.399 56.1251C144.208 55.0197 144.339 54.0889 145.435 53.3442C146.71 52.4832 147.83 51.4127 149.117 50.3422C148.473 49.9815 147.949 49.7255 147.461 49.423C145.173 47.9918 144.005 45.1411 144.577 42.5464C145.09 40.2426 146.329 38.5205 148.628 37.706C149.367 37.4384 150.213 37.45 151.023 37.4035C151.857 37.3569 152.691 37.4384 153.525 37.4151C154.085 37.4035 154.288 37.6944 154.3 38.1482C154.312 39.0208 154.276 39.8935 154.264 40.7545C154.228 45.0015 154.205 49.2368 154.181 53.4838C154.181 54.3216 154.157 55.1477 154.145 55.9855C154.133 56.6836 154.038 56.7767 153.311 56.8C153.168 56.8 153.037 56.8 152.894 56.8C152.25 56.7883 152.072 56.6371 152.072 56.0087C152.072 54.4263 152.072 52.8322 152.072 51.2498C152.06 51.1451 152.024 51.0287 151.988 50.7495ZM152.072 41.9763C152.06 41.9763 152.06 41.9763 152.072 41.9763C152.072 41.3829 152.072 40.7778 152.072 40.1844C152.072 39.8237 151.905 39.6724 151.524 39.6724C150.642 39.6608 149.82 39.8237 148.998 40.1611C146.388 41.2199 146.126 44.7688 147.461 46.5141C148.509 47.8755 149.963 48.2478 151.607 48.2246C151.976 48.2246 152.096 48.0617 152.084 47.7242C152.06 45.8044 152.072 43.8961 152.072 41.9763Z" fill="#EAECF9"/>
<path d="M138.858 54.531C138.858 53.2627 138.846 52.0992 138.858 50.9473C138.87 49.7139 138.942 48.4689 138.942 47.2355C138.953 44.4895 138.93 41.7319 138.918 38.9859C138.918 38.9277 138.918 38.8696 138.918 38.8114C138.906 37.3802 139.013 37.2988 140.467 37.3802C141.003 37.4151 141.205 37.6478 141.205 38.1481C141.193 39.2303 141.193 40.3124 141.193 41.4061C141.193 43.4423 141.205 45.4669 141.193 47.5031C141.182 49.1088 141.122 50.7145 141.098 52.3203C141.074 53.5536 141.05 54.7986 141.039 56.032C141.039 56.4392 140.872 56.7301 140.431 56.7301C138.393 56.7069 136.332 56.7883 134.307 56.6138C132.305 56.4392 130.959 55.171 129.934 53.5536C129.16 52.3203 129.005 50.9589 129.029 49.5394C129.052 48.05 129.005 46.5607 129.005 45.0597C129.005 44.0008 129.04 42.9304 129.04 41.8715C129.04 40.964 128.993 40.0564 128.969 39.1372C128.969 38.9975 128.957 38.8696 128.957 38.7299C128.945 37.45 129.374 37.101 130.661 37.4384C130.875 37.4966 131.149 37.8573 131.161 38.1016C131.221 39.1488 131.197 40.196 131.209 41.2316C131.209 42.3486 131.209 43.4772 131.209 44.5942C131.209 46.165 131.185 47.7358 131.185 49.295C131.185 50.54 131.185 51.7734 131.995 52.8555C132.746 53.8561 133.735 54.4496 134.986 54.5194C136.225 54.5776 137.488 54.531 138.858 54.531Z" fill="#EAECF9"/>
<path d="M174.781 27.6994C173.733 26.8965 172.696 26.3264 171.958 25.5119C168.931 22.1376 170.015 16.7503 174.198 15.0283C174.853 14.7606 175.603 14.6559 176.33 14.5978C177.272 14.5279 178.237 14.5861 179.19 14.5861C179.702 14.5861 179.917 14.7607 179.917 15.3075C179.905 18.9611 179.929 22.6263 179.94 26.2798C179.952 28.2928 179.988 30.2941 180 32.3071C180 32.7143 179.952 33.1215 179.917 33.5172C179.905 33.587 179.893 33.7266 179.857 33.7266C179.392 33.808 178.916 33.9128 178.439 33.9011C178.284 33.9011 178.034 33.5288 178.034 33.331C177.975 31.8765 177.975 30.4221 177.939 28.9793C177.927 28.6535 177.891 28.3393 177.843 27.8506C177.426 28.1532 177.117 28.3742 176.819 28.607C174.853 30.201 172.899 31.8184 170.933 33.4124C170.802 33.5288 170.599 33.5521 170.421 33.6219C170.373 33.4473 170.278 33.2612 170.266 33.0866C170.242 32.6445 170.218 32.1907 170.278 31.7602C170.301 31.5391 170.444 31.2831 170.611 31.1319C171.838 30.0614 173.089 29.0142 174.329 27.967C174.495 27.839 174.686 27.7576 174.781 27.6994ZM177.879 21.102C177.867 21.102 177.855 21.102 177.855 21.102C177.855 19.9966 177.867 18.8913 177.855 17.7975C177.843 16.6107 178.082 16.7387 176.7 16.7038C173.912 16.6223 172.351 18.9727 172.267 20.8809C172.148 23.7549 174.424 25.7912 177.355 25.5352C177.76 25.5003 177.891 25.3257 177.891 24.9418C177.879 23.6502 177.879 22.3703 177.879 21.102Z" fill="#EAECF9"/>
<path d="M101.362 47.7824C101.362 45.1761 101.362 42.558 101.362 39.9517C101.362 39.2768 101.362 38.6019 101.374 37.9271C101.374 37.6013 101.446 37.2638 101.863 37.2522C103.745 37.1824 105.652 36.8566 107.463 37.7176C110.87 39.335 112.229 43.1515 110.62 46.5258C109.786 48.2711 108.535 49.5278 106.605 50.0281C105.902 50.2143 105.163 50.2259 104.436 50.2841C103.626 50.3423 103.59 50.3539 103.579 51.1218C103.555 52.2621 103.567 53.4024 103.543 54.5427C103.531 55.0663 103.483 55.5899 103.436 56.1019C103.424 56.195 103.388 56.3579 103.352 56.3579C102.84 56.4277 102.316 56.544 101.803 56.4859C101.636 56.4742 101.386 56.0321 101.386 55.7761C101.35 54.4962 101.374 53.2163 101.374 51.9363C101.374 50.5401 101.374 49.1554 101.374 47.7592C101.374 47.7824 101.362 47.7824 101.362 47.7824ZM103.65 46.5723C103.626 46.5723 103.614 46.5723 103.59 46.5723C103.59 46.805 103.614 47.0378 103.59 47.2705C103.543 47.7243 103.745 47.9337 104.198 47.8988C104.746 47.8639 105.306 47.8755 105.854 47.7708C108.082 47.3403 109.238 45.0132 108.916 43.2562C108.464 40.8127 106.903 39.463 104.448 39.4979C103.888 39.5095 103.65 39.7073 103.65 40.2426C103.65 42.3602 103.65 44.4663 103.65 46.5723Z" fill="#EAECF9"/>
<path d="M113.682 24.2669C113.682 27.2107 113.682 30.1545 113.682 33.0983C113.682 33.7732 113.587 33.8663 112.896 33.8895C112.777 33.8895 112.658 33.8895 112.538 33.8895C111.728 33.8895 111.657 33.8197 111.657 33.0285C111.657 28.0834 111.657 23.1383 111.657 18.1931C111.657 18.1699 111.657 18.1582 111.657 18.135C111.585 16.6573 111.871 16.506 109.929 16.7736C106.569 17.239 104.079 20.1596 103.876 23.2546C103.71 25.7563 103.805 28.2812 103.781 30.7945C103.769 31.6671 103.781 32.5398 103.721 33.4125C103.71 33.5754 103.447 33.843 103.269 33.8663C101.791 34.0873 101.72 34.0175 101.732 32.5514C101.744 29.5262 101.708 26.5009 101.803 23.4873C101.934 19.3567 105.02 15.6799 109.166 14.7839C110.477 14.5047 111.883 14.6443 113.253 14.621C113.706 14.6094 113.694 14.9934 113.694 15.3075C113.694 17.1459 113.694 18.9844 113.694 20.8344C113.682 21.9863 113.682 23.1266 113.682 24.2669Z" fill="#EAECF9"/>
<path d="M58.5167 49.6674C58.5167 47.5031 58.3737 45.3273 58.5524 43.1631C58.8503 39.4164 61.8409 36.8799 65.6179 37.0195C67.0238 37.0777 67.0238 37.0777 66.9762 38.4507C66.9523 39.1953 66.8928 39.2652 66.1064 39.2652C64.8792 39.2768 63.6877 39.4164 62.663 40.1495C61.6145 40.9058 60.8877 41.9064 60.8162 43.198C60.709 45.2226 60.7209 47.2588 60.6733 49.295C60.6494 50.5168 60.5899 51.7269 60.5779 52.9486C60.566 53.798 60.6018 54.6474 60.6256 55.4968C60.6375 56.0087 60.4588 56.2531 59.863 56.2415C58.2784 56.2066 58.5524 56.3113 58.5286 54.9848C58.4928 53.2395 58.5167 51.4476 58.5167 49.6674Z" fill="#EAECF9"/>
</svg>
