<svg width="34" height="34" viewBox="0 0 34 34" fill="none" xmlns="http://www.w3.org/2000/svg">
<path d="M16.1135 25.1461H14.1213V27.9794H16.1135V25.1461Z" fill="#FA6020"/>
<path d="M19.8787 25.1461H17.8865V27.9794H19.8787V25.1461Z" fill="#FA6020"/>
<path d="M16.1135 18.7711H14.1213V21.6044H16.1135V18.7711Z" fill="#FA6020"/>
<path d="M19.8787 18.7711H17.8865V21.6044H19.8787V18.7711Z" fill="#FA6020"/>
<path d="M16.1135 12.3961H14.1213V15.2294H16.1135V12.3961Z" fill="#FA6020"/>
<path d="M19.8787 12.3961H17.8865V15.2294H19.8787V12.3961Z" fill="#FA6020"/>
<path d="M16.1135 6.02105H14.1213V8.85441H16.1135V6.02105Z" fill="#FA6020"/>
<path d="M19.8787 6.02105H17.8865V8.85441H19.8787V6.02105Z" fill="#FA6020"/>
<path d="M31.3105 29.8998C32.8602 29.4641 34 28.0392 34 26.3522C34 25.8324 33.8452 24.8905 32.5069 22.7211C31.8198 21.6073 31.1423 20.694 31.1138 20.6556L30.3145 19.5807L29.5151 20.6557C29.4866 20.694 28.8091 21.6073 28.122 22.7212C27.8987 23.0832 27.7089 23.4103 27.5467 23.7078V5.66664H23.9041V0H10.0958V5.66664H6.45329V23.7077C6.29113 23.4103 6.10141 23.0831 5.87802 22.7212C5.19091 21.6073 4.51337 20.694 4.48488 20.6557L3.68555 19.5807L2.88621 20.6557C2.85773 20.694 2.18018 21.6073 1.49308 22.7212C0.154793 24.8905 0 25.8324 0 26.3522C0 28.0392 1.1398 29.4641 2.68945 29.8998V32.0078H0V34H34V32.0078H31.3105V29.8998ZM1.99219 26.3522C1.99219 25.8156 2.77246 24.3658 3.68575 22.9857C4.59883 24.3651 5.37891 25.8145 5.37891 26.3522C5.37891 27.2859 4.61929 28.0456 3.68555 28.0456C2.75181 28.0456 1.99219 27.2859 1.99219 26.3522ZM6.45329 32.0078H4.68164V29.8998C5.37678 29.7044 5.98905 29.3101 6.45329 28.7819V32.0078ZM10.0959 32.0078H8.44548V7.65883H10.0959V32.0078ZM21.9119 32.0078H12.088V1.99219H21.9119V32.0078ZM25.5545 32.0078H23.9041V7.65883H25.5545V32.0078ZM29.3184 32.0078H27.5467V28.7819C28.0109 29.3101 28.6232 29.7044 29.3184 29.8998V32.0078ZM28.6211 26.3522C28.6211 25.8156 29.4014 24.3658 30.3147 22.9857C31.2277 24.3651 32.0078 25.8145 32.0078 26.3522C32.0078 27.2859 31.2482 28.0456 30.3145 28.0456C29.3807 28.0456 28.6211 27.2859 28.6211 26.3522Z" fill="#FA6020"/>
</svg>
