<svg width="34" height="34" viewBox="0 0 34 34" fill="none" xmlns="http://www.w3.org/2000/svg">
<path d="M24.7775 25.5H22.7853V28.3334H24.7775V25.5Z" fill="#FA6020"/>
<path d="M28.5427 25.5H26.5505V28.3334H28.5427V25.5Z" fill="#FA6020"/>
<path d="M24.7775 19.125H22.7853V21.9584H24.7775V19.125Z" fill="#FA6020"/>
<path d="M28.5427 19.125H26.5505V21.9584H28.5427V19.125Z" fill="#FA6020"/>
<path d="M24.7775 12.75H22.7853V15.5834H24.7775V12.75Z" fill="#FA6020"/>
<path d="M28.5427 12.75H26.5505V15.5834H28.5427V12.75Z" fill="#FA6020"/>
<path d="M28.5427 6.375H26.5505V9.20836H28.5427V6.375Z" fill="#FA6020"/>
<path d="M13.7713 25.5H11.7791V28.3334H13.7713V25.5Z" fill="#FA6020"/>
<path d="M17.5366 25.5H15.5444V28.3334H17.5366V25.5Z" fill="#FA6020"/>
<path d="M13.7713 19.125H11.7791V21.9584H13.7713V19.125Z" fill="#FA6020"/>
<path d="M17.5366 19.125H15.5444V21.9584H17.5366V19.125Z" fill="#FA6020"/>
<path d="M17.5366 12.75H15.5444V15.5834H17.5366V12.75Z" fill="#FA6020"/>
<path d="M32.1628 32.0078V0H26.5863L21.1402 5.70516H15.5805L8.159 13.4798V32.0078H4.68164V29.8999C6.2313 29.4641 7.37109 28.0392 7.37109 26.3523C7.37109 24.32 5.71778 22.6667 3.68555 22.6667C1.65332 22.6667 0 24.32 0 26.3522C0 28.0392 1.1398 29.4641 2.68945 29.8998V32.0078H0V34H34V32.0078H32.1628ZM1.99219 26.3522C1.99219 25.4185 2.75181 24.6588 3.68555 24.6588C4.61929 24.6588 5.37891 25.4185 5.37891 26.3522C5.37891 27.2859 4.61929 28.0456 3.68555 28.0456C2.75181 28.0456 1.99219 27.286 1.99219 26.3522ZM19.1648 32.0078H10.1512V14.278L16.433 7.69735H19.1648V32.0078ZM30.1706 32.0078H21.157V8.57285L27.4387 1.99219H30.1706V32.0078Z" fill="#FA6020"/>
</svg>
