<svg width="22" height="19" viewBox="0 0 22 19" fill="none" xmlns="http://www.w3.org/2000/svg">
<path d="M4.45887 0L0 4.01478L1.33826 5.50107L5.79713 1.48629L4.45887 0Z" fill="#FA6020"/>
<path d="M10 6H12V10H15V12H10V6Z" fill="#FA6020"/>
<path fill-rule="evenodd" clip-rule="evenodd" d="M2 10C2 5.02944 6.02944 1 11 1C15.9706 1 20 5.02944 20 10C20 14.9706 15.9706 19 11 19C6.02944 19 2 14.9706 2 10ZM4 10C4 6.13401 7.13401 3 11 3C14.866 3 18 6.13401 18 10C18 13.866 14.866 17 11 17C7.13401 17 4 13.866 4 10Z" fill="#FA6020"/>
<path d="M17.5411 0L22 4.01478L20.6617 5.50107L16.2029 1.48629L17.5411 0Z" fill="#FA6020"/>
</svg>
