<svg width="34" height="34" viewBox="0 0 34 34" fill="none" xmlns="http://www.w3.org/2000/svg">
<path d="M17.9961 26.4795H16.0039V29.3128H17.9961V26.4795Z" fill="#FA6020"/>
<path d="M17.9961 20.5029H16.0039V23.3363H17.9961V20.5029Z" fill="#FA6020"/>
<path d="M17.9961 14.5264H16.0039V17.3597H17.9961V14.5264Z" fill="#FA6020"/>
<path d="M17.9961 8.5498H16.0039V11.3832H17.9961V8.5498Z" fill="#FA6020"/>
<path d="M22.9546 26.4795H20.9625V29.3128H22.9546V26.4795Z" fill="#FA6020"/>
<path d="M22.9546 20.5029H20.9625V23.3363H22.9546V20.5029Z" fill="#FA6020"/>
<path d="M22.9546 14.5264H20.9625V17.3597H22.9546V14.5264Z" fill="#FA6020"/>
<path d="M22.9546 8.5498H20.9625V11.3832H22.9546V8.5498Z" fill="#FA6020"/>
<path d="M13.0375 26.4795H11.0454V29.3128H13.0375V26.4795Z" fill="#FA6020"/>
<path d="M13.0375 20.5029H11.0454V23.3363H13.0375V20.5029Z" fill="#FA6020"/>
<path d="M13.0375 14.5264H11.0454V17.3597H13.0375V14.5264Z" fill="#FA6020"/>
<path d="M13.0375 8.5498H11.0454V11.3832H13.0375V8.5498Z" fill="#FA6020"/>
<path d="M31.3105 29.8999C32.8602 29.4641 34 28.0392 34 26.3523C34 25.8324 33.8452 24.8905 32.5069 22.7212C31.8198 21.6073 31.1423 20.694 31.1138 20.6557L30.3145 19.5807L29.5151 20.6557C29.4866 20.694 28.8091 21.6073 28.122 22.7212C27.8987 23.0832 27.7089 23.4103 27.5467 23.7078V3.96226H25.0676V0H8.93244V3.96226H6.45329V23.7077C6.29113 23.4103 6.10134 23.0831 5.87802 22.7211C5.19091 21.6073 4.51337 20.694 4.48488 20.6556L3.68555 19.5807L2.88621 20.6557C2.85773 20.694 2.18018 21.6073 1.49308 22.7212C0.154793 24.8905 0 25.8324 0 26.3522C0 28.0392 1.1398 29.4641 2.68945 29.8998V32.0078H0V34H34V32.0078H31.3105V29.8999ZM1.99219 26.3522C1.99219 25.8156 2.77239 24.366 3.68555 22.9861C4.59877 24.3661 5.37891 25.8156 5.37891 26.3522C5.37891 27.2859 4.61929 28.0456 3.68555 28.0456C2.75181 28.0456 1.99219 27.2859 1.99219 26.3522ZM6.45329 32.0078H4.68164V29.8999C5.37678 29.7044 5.98905 29.3101 6.45329 28.782V32.0078ZM10.9246 1.99219H23.0754V3.96226H10.9246V1.99219ZM25.5545 32.0078H8.44548V5.95445H25.5545V32.0078ZM29.3184 32.0078H27.5467V28.7819C28.011 29.3101 28.6232 29.7044 29.3184 29.8999V32.0078ZM28.6211 26.3522C28.6211 25.8156 29.4013 24.366 30.3145 22.9861C31.2277 24.3661 32.0078 25.8156 32.0078 26.3522C32.0078 27.2859 31.2482 28.0456 30.3145 28.0456C29.3807 28.0456 28.6211 27.2859 28.6211 26.3522Z" fill="#FA6020"/>
</svg>
